<svg width="936" height="192" viewBox="0 0 936 192" fill="none" xmlns="http://www.w3.org/2000/svg">
<path d="M95.6192 33.7287C60.9536 33.7287 32.8496 61.7878 32.8496 96.3979C32.8496 131.008 60.9536 159.067 95.6192 159.067C130.285 159.067 158.389 131.008 158.389 96.3979C158.389 61.7878 130.285 33.7287 95.6192 33.7287Z" fill="#C6FE1E"/>
<mask id="mask0_1_251" style="mask-type:luminance" maskUnits="userSpaceOnUse" x="51" y="61" width="95" height="80">
<path d="M145.834 61.9301H51.6797V140.267H145.834V61.9301Z" fill="white"/>
</mask>
<g mask="url(#mask0_1_251)">
<path d="M88.1264 80.0036H88.0846C85.4901 79.2599 82.745 80.7472 81.8662 83.2039C80.8954 85.8443 82.4353 88.8692 85.1553 89.7047C91.8173 91.5932 94.6796 82.0591 88.1264 80.0036Z" fill="#0D0D0D"/>
<path d="M144.905 93.4814C136.326 74.7224 108.958 82.4851 106.431 77.5718C99.0242 65.9655 85.1981 59.4479 70.2506 62.8069C67.949 61.8878 60.0233 61.6371 54.9013 64.8541L57.9896 66.2161C58.2239 66.3164 58.157 66.2913 58.5001 66.4167C59.8978 66.9431 59.6551 66.7927 58.6507 67.3442C56.3492 68.6895 53.4785 70.252 51.6875 72.6C51.7628 72.7087 55.6294 73.6362 55.6294 73.6362C55.6964 73.6529 56.4161 73.7281 56.2571 74.0456C43.6111 93.9828 64.9361 124.072 75.2889 140.266H105.259C100.631 131.994 95.3417 120.705 97.1494 113.043C97.4758 111.655 97.8943 109.892 99.6016 109.658C103.728 108.998 109.251 109.057 113.185 108.614C113.185 108.614 113.205 108.614 113.244 108.614C114.08 108.572 134.568 105.973 139.473 118.725C139.891 119.894 140.854 119.134 141.239 118.365C144.896 111.104 147.256 99.6731 144.921 93.4898L144.905 93.4814ZM111.829 87.3231C110.39 89.8884 109.41 93.2224 109.159 96.1302C109.025 97.9769 109.218 99.7985 109.402 101.645C109.502 102.665 109.511 103.951 108.691 104.62C107.979 105.221 106.799 105.28 105.611 105.363C99.7774 105.338 85.5496 105.363 80.0677 101.637L80.0343 101.612C72.0583 96.7569 67.79 85.794 72.527 77.2793C74.0586 74.3882 76.879 72.5081 80.0928 71.7979C84.2273 70.8537 88.7801 71.5556 92.471 73.4858C93.9775 74.2462 95.7769 75.2489 97.1494 76.402C99.8694 78.775 102.196 81.24 105.761 82.0004C107.402 82.4683 109.109 82.4015 110.75 82.7357C113.821 83.4711 113.051 85.2174 111.821 87.3064L111.829 87.3231Z" fill="#0D0D0D"/>
</g>
<path d="M191.238 124.85V53.7159H215.718C222.899 53.7159 229.159 55.1447 234.499 57.9941C239.839 60.8518 243.981 64.9211 246.953 70.2104C249.915 75.4997 251.397 81.8752 251.397 89.3287C251.397 96.7821 249.915 103.258 246.953 108.547C243.99 113.837 239.822 117.881 234.449 120.663C229.076 123.446 222.799 124.841 215.618 124.841H191.247L191.238 124.85ZM204.947 116.385L199.825 111.789H214.681C219.075 111.789 222.958 110.987 226.347 109.383C229.729 107.778 232.398 105.347 234.348 102.071C236.298 98.7959 237.278 94.5511 237.278 89.3287C237.278 84.1063 236.315 80.1372 234.399 76.7949C232.482 73.4525 229.829 70.9457 226.448 69.2746C223.067 67.6034 219.175 66.7678 214.781 66.7678H199.089L204.947 62.5898V116.385Z" fill="#0D0D0D"/>
<path d="M283.82 126.103C278.522 126.103 273.86 124.967 269.852 122.711C265.843 120.446 262.721 117.313 260.486 113.31C258.252 109.308 257.139 104.662 257.139 99.3642C257.139 94.0665 258.252 89.429 260.486 85.4182C262.721 81.4157 265.834 78.2822 269.852 76.0178C273.86 73.7533 278.514 72.6253 283.82 72.6253C289.126 72.6253 293.771 73.7617 297.788 76.0178C301.797 78.2822 304.919 81.4157 307.153 85.4182C309.388 89.4206 310.501 94.0749 310.501 99.3642C310.501 104.653 309.388 109.308 307.153 113.31C304.919 117.313 301.797 120.446 297.788 122.711C293.779 124.975 289.118 126.103 283.82 126.103ZM283.82 112.834C287.586 112.834 290.658 111.597 293.026 109.124C295.395 106.65 296.583 103.4 296.583 99.3558C296.583 95.3115 295.395 92.0444 293.026 89.5376C290.658 87.0309 287.586 85.7775 283.82 85.7775C280.054 85.7775 276.999 87.0141 274.664 89.4875C272.329 91.9608 271.157 95.2196 271.157 99.2555C271.157 103.291 272.321 106.567 274.664 109.074C276.999 111.58 280.054 112.834 283.82 112.834Z" fill="#0D0D0D"/>
<path d="M339.76 126.153C335.09 126.153 330.972 125 327.415 122.711C323.858 120.421 321.104 117.246 319.146 113.202C317.196 109.166 316.217 104.528 316.217 99.3141C316.217 94.1 317.213 89.3789 319.196 85.3681C321.188 81.3656 323.958 78.2489 327.515 76.0179C331.072 73.7868 335.148 72.6755 339.751 72.6755C344.354 72.6755 348.221 73.72 351.569 75.809C354.916 77.8979 357.528 80.9228 359.419 84.9002C361.31 88.8776 362.248 93.6739 362.248 99.3141C362.248 104.954 361.31 109.466 359.419 113.469C357.536 117.471 354.9 120.588 351.518 122.819C348.137 125.05 344.212 126.162 339.751 126.162L339.76 126.153ZM342.17 113.519C345.727 113.519 348.623 112.216 350.857 109.6C353.092 106.993 354.205 103.592 354.205 99.4144C354.205 95.2364 353.092 91.7353 350.857 89.1283C348.623 86.5212 345.735 85.2093 342.17 85.2093C338.605 85.2093 335.801 86.5129 333.541 89.1283C331.273 91.7353 330.143 95.1361 330.143 99.3141C330.143 103.492 331.273 106.901 333.541 109.55C335.809 112.199 338.68 113.519 342.17 113.519ZM357.025 124.9L353.577 112.784H354.515V87.198H353.577V53.7745H367.286V124.9H357.034H357.025Z" fill="#0D0D0D"/>
<path d="M399.181 126.103C393.884 126.103 389.222 124.967 385.213 122.711C381.204 120.446 378.082 117.313 375.848 113.31C373.613 109.308 372.5 104.662 372.5 99.3642C372.5 94.0665 373.613 89.429 375.848 85.4182C378.082 81.4157 381.196 78.2822 385.213 76.0178C389.222 73.7533 393.875 72.6253 399.181 72.6253C404.487 72.6253 409.132 73.7617 413.15 76.0178C417.158 78.2822 420.28 81.4157 422.515 85.4182C424.749 89.4206 425.863 94.0749 425.863 99.3642C425.863 104.653 424.749 109.308 422.515 113.31C420.28 117.313 417.158 120.446 413.15 122.711C409.141 124.975 404.479 126.103 399.181 126.103ZM399.181 112.834C402.947 112.834 406.019 111.597 408.387 109.124C410.756 106.65 411.944 103.4 411.944 99.3558C411.944 95.3115 410.756 92.0444 408.387 89.5376C406.019 87.0309 402.947 85.7775 399.181 85.7775C395.415 85.7775 392.36 87.0141 390.025 89.4875C387.69 91.9608 386.519 95.2196 386.519 99.2555C386.519 103.291 387.682 106.567 390.025 109.074C392.36 111.58 395.415 112.834 399.181 112.834Z" fill="#0D0D0D"/>
<path d="M475.267 91.0083H488.658C492.701 91.0083 495.914 89.9638 498.283 87.8748C500.651 85.7859 501.84 82.8279 501.84 79.0009C501.84 74.965 500.668 71.9151 498.333 69.8595C495.998 67.804 492.801 66.7762 488.759 66.7762H475.159L478.088 63.7514V124.85H464.379V53.7159H490.006C495.236 53.7159 499.773 54.7771 503.606 56.8995C507.439 59.0219 510.443 61.9632 512.603 65.7234C514.762 69.4835 515.85 73.9038 515.85 78.9925C515.85 84.0813 514.77 88.4096 512.603 92.2032C510.443 95.9968 507.422 98.938 503.555 101.027C499.689 103.116 495.169 104.16 490.006 104.16H475.259V90.9999L475.267 91.0083Z" fill="#0D0D0D"/>
<path d="M540.429 126.312C536.663 126.312 533.349 125.593 530.486 124.173C527.624 122.744 525.431 120.73 523.891 118.115C522.36 115.508 521.59 112.458 521.59 108.974C521.59 105.489 522.41 102.464 524.05 99.8824C525.691 97.3088 527.934 95.3034 530.796 93.8745C533.658 92.4457 536.897 91.7354 540.521 91.7354C545.476 91.7354 549.501 92.8718 552.606 95.1279C555.711 97.3923 557.82 100.609 558.934 104.787L552.556 103.952V91.6268C552.556 89.6799 551.862 87.9335 550.464 86.4043C549.066 84.8752 546.798 84.1065 543.668 84.1065C541.718 84.1065 539.55 84.3321 537.182 84.7833C534.813 85.2345 532.336 86.0868 529.75 87.3402L525.666 77.3131C528.662 75.8509 531.851 74.7061 535.24 73.8705C538.621 73.0349 542.019 72.6171 545.442 72.6171C550.112 72.6171 553.987 73.4527 557.059 75.1239C560.13 76.7951 562.432 79.0929 563.964 82.0175C565.495 84.9421 566.265 88.2844 566.265 92.0446V124.841H555.385L552.456 115.132L558.942 113.252C557.753 117.363 555.577 120.563 552.406 122.861C549.234 125.159 545.241 126.304 540.429 126.304V126.312ZM544.195 115.867C546.706 115.867 548.731 115.241 550.263 113.987C551.795 112.734 552.565 111.063 552.565 108.974C552.565 106.885 551.795 105.13 550.263 103.91C548.731 102.69 546.706 102.08 544.195 102.08C541.684 102.08 539.659 102.69 538.128 103.91C536.596 105.13 535.826 106.818 535.826 108.974C535.826 111.129 536.596 112.734 538.128 113.987C539.659 115.241 541.684 115.867 544.195 115.867Z" fill="#0D0D0D"/>
<path d="M592.395 120.145L571.99 73.7703H586.009L604.94 116.903L592.386 120.145H592.395ZM580.678 144.695L611.962 73.7703H625.98L594.696 144.695H580.678Z" fill="#0D0D0D"/>
<path d="M631.696 124.85V73.7785H641.948L644.777 83.5967L640.383 83.3878C642.199 81.2989 644.183 79.4522 646.342 77.8562C648.501 76.2519 650.853 74.9818 653.406 74.0459C655.95 73.1101 658.62 72.6338 661.407 72.6338C664.897 72.6338 667.684 73.2271 669.776 74.4052C671.868 75.5918 673.417 77.1878 674.429 79.2099C675.442 81.232 676.137 83.5132 676.522 86.0534C676.907 88.5935 677.099 91.2256 677.099 93.9413V124.858H663.39V93.841C663.39 90.7076 662.763 88.6186 661.507 87.5741C660.252 86.5296 658.754 86.0032 657.005 86.0032C654.494 86.0032 652.05 86.7552 649.681 88.251C647.313 89.7467 645.321 91.6434 643.723 93.9413L641.948 86.8388H645.396V124.858H631.688L631.696 124.85ZM694.993 124.85V93.8327C694.993 90.6992 694.382 88.6103 693.16 87.5658C691.938 86.5213 690.457 85.9949 688.716 85.9949C686.205 85.9949 683.761 86.7469 681.393 88.2426C679.024 89.7383 677.032 91.6351 675.434 93.933L671.986 83.3878C673.802 81.2989 675.802 79.4522 678.003 77.8562C680.196 76.2519 682.573 74.9818 685.117 74.0459C687.661 73.1101 690.331 72.6338 693.118 72.6338C696.533 72.6338 699.295 73.2271 701.387 74.4052C703.479 75.5918 705.053 77.1878 706.09 79.2099C707.137 81.232 707.848 83.5132 708.233 86.0534C708.618 88.5935 708.81 91.2256 708.81 93.9413V124.858H695.001L694.993 124.85Z" fill="#0D0D0D"/>
<path d="M739.945 125.894C734.856 125.894 730.387 124.799 726.554 122.602C722.721 120.413 719.758 117.329 717.666 113.36C715.574 109.391 714.527 104.729 714.527 99.3642C714.527 93.9997 715.574 89.429 717.666 85.4182C719.758 81.4157 722.721 78.2822 726.554 76.0178C730.387 73.7533 734.856 72.6253 739.945 72.6253C745.033 72.6253 749.586 73.7784 753.386 76.0679C757.186 78.3658 760.132 81.516 762.224 85.5184C764.316 89.5209 765.362 94.0999 765.362 99.2555C765.362 100.024 765.346 100.768 765.312 101.503C765.279 102.239 765.187 102.849 765.053 103.333H725.717V93.0972H754.692L752.599 98.0105C752.599 93.6905 751.57 90.1727 749.511 87.4654C747.452 84.7497 744.263 83.3877 739.936 83.3877C736.17 83.3877 733.141 84.5575 730.831 86.8888C728.529 89.2201 727.383 92.3368 727.383 96.239V101.771C727.383 105.882 728.546 109.099 730.889 111.43C733.224 113.761 736.413 114.931 740.464 114.931C744.021 114.931 746.808 114.196 748.833 112.742C750.858 111.28 752.599 109.466 754.064 107.311L763.588 112.742C761.286 116.987 758.165 120.246 754.223 122.51C750.281 124.774 745.519 125.902 739.945 125.902V125.894Z" fill="#0D0D0D"/>
<path d="M801.844 72.6253C805.334 72.6253 808.138 73.2186 810.264 74.3967C812.389 75.5833 813.996 77.1793 815.076 79.2014C816.156 81.2235 816.867 83.5047 817.219 86.0449C817.57 88.5851 817.737 91.2172 817.737 93.9328V124.85H804.029V93.8326C804.029 90.6991 803.418 88.6101 802.196 87.5656C800.974 86.5211 799.425 85.9947 797.542 85.9947C795.802 85.9947 794.019 86.329 792.203 86.9891C790.387 87.6492 788.696 88.5934 787.131 89.8134C785.558 91.0333 784.218 92.4121 783.105 93.9412L781.331 86.8387H784.779V124.858H771.07V73.7868H781.323L784.152 83.6049L779.758 83.396C781.574 81.3071 783.641 79.4604 785.984 77.8644C788.319 76.2601 790.813 74.99 793.467 74.0542C796.12 73.1183 798.907 72.642 801.836 72.642L801.844 72.6253Z" fill="#0D0D0D"/>
<path d="M823.471 86.4128V73.7786H856.32V86.4128H823.471ZM848.369 125.786C843.139 125.786 839.004 124.415 835.974 121.658C832.945 118.909 831.422 114.505 831.422 108.447V74.397L831.212 73.7703L834.041 61.7545H845.13V106.25C845.13 108.481 845.666 110.102 846.754 111.104C847.834 112.115 849.215 112.617 850.888 112.617C852.002 112.617 853.014 112.533 853.918 112.358C854.822 112.182 855.625 111.99 856.328 111.781V124.524C855.215 124.942 854.027 125.259 852.772 125.46C851.516 125.66 850.052 125.777 848.378 125.777L848.369 125.786Z" fill="#0D0D0D"/>
<path d="M882.473 126.203C878.565 126.203 874.849 125.401 871.334 123.797C867.81 122.192 864.689 119.41 861.969 115.441L870.338 108.13C872.573 110.636 874.715 112.433 876.774 113.511C878.833 114.589 881.151 115.132 883.729 115.132C885.47 115.132 886.867 114.714 887.914 113.878C888.96 113.043 889.487 111.998 889.487 110.745C889.487 109.909 889.211 109.166 888.65 108.497C888.089 107.837 887.06 107.194 885.562 106.567C884.064 105.94 881.879 105.28 879.025 104.578C873.728 103.183 869.752 101.286 867.099 98.8879C864.446 96.4814 863.124 93.0889 863.124 88.7021C863.124 85.7107 863.894 82.9783 865.425 80.5049C866.957 78.0316 869.175 76.068 872.07 74.6057C874.966 73.1434 878.398 72.4164 882.373 72.4164C887.043 72.4164 891.035 73.3189 894.349 75.1321C897.664 76.9453 900.325 79.1346 902.351 81.7165L893.462 89.1366C892.14 87.7411 890.433 86.5295 888.34 85.4767C886.248 84.4239 883.804 83.9058 881.017 83.9058C879.486 83.9058 878.121 84.2567 876.933 84.9503C875.745 85.6438 875.159 86.6549 875.159 87.9751C875.159 89.2285 875.803 90.273 877.092 91.1086C878.381 91.9442 880.875 92.8132 884.574 93.7156C890.851 95.1779 895.354 97.1582 898.065 99.665C900.777 102.172 902.15 105.514 902.15 109.692C902.15 113.034 901.279 115.942 899.538 118.416C897.798 120.889 895.437 122.802 892.475 124.164C889.512 125.518 886.181 126.203 882.482 126.203H882.473Z" fill="#0D0D0D"/>
</svg>
