<svg width="935" height="191" viewBox="0 0 935 191" fill="none" xmlns="http://www.w3.org/2000/svg">
<path d="M96.0953 32.7966C61.4742 32.7966 33.4062 60.8557 33.4062 95.4658C33.4062 130.076 61.4742 158.135 96.0953 158.135C130.716 158.135 158.784 130.076 158.784 95.4658C158.784 60.8557 130.716 32.7966 96.0953 32.7966Z" fill="#C6FE1E"/>
<mask id="mask0_1_227" style="mask-type:luminance" maskUnits="userSpaceOnUse" x="52" y="60" width="95" height="80">
<path d="M146.246 60.9979H52.2129V139.334H146.246V60.9979Z" fill="white"/>
</mask>
<g mask="url(#mask0_1_227)">
<path d="M88.6141 79.0714H88.5723C85.9812 78.3278 83.2396 79.8151 82.3619 82.2717C81.3923 84.9122 82.9303 87.937 85.6468 88.7726C92.3002 90.661 95.1589 81.127 88.6141 79.0714Z" fill="#0D0D0D"/>
<path d="M145.318 92.5493C136.751 73.7903 109.418 81.5529 106.894 76.6397C99.4966 65.0333 85.6883 58.5157 70.76 61.8748C68.4614 60.9557 60.5458 60.705 55.4304 63.922L58.5147 65.284C58.7487 65.3843 58.6819 65.3592 59.0246 65.4846C60.4204 66.011 60.178 65.8606 59.175 66.4121C56.8764 67.7574 54.0094 69.3199 52.2207 71.6679C52.2959 71.7765 56.1576 72.704 56.1576 72.704C56.2244 72.7208 56.9433 72.796 56.7845 73.1135C44.1547 93.0506 65.4523 123.14 75.7918 139.334H105.724C101.101 131.062 95.8189 119.773 97.6243 112.11C97.9503 110.723 98.3682 108.96 100.073 108.726C104.194 108.066 109.711 108.125 113.639 107.682C113.639 107.682 113.659 107.682 113.698 107.682C114.534 107.64 134.995 105.041 139.893 117.792C140.311 118.962 141.273 118.202 141.657 117.433C145.31 110.172 147.667 98.741 145.335 92.5576L145.318 92.5493ZM112.285 86.391C110.848 88.9562 109.87 92.2902 109.619 95.1981C109.485 97.0448 109.677 98.8663 109.861 100.713C109.962 101.732 109.97 103.019 109.151 103.688C108.44 104.289 107.262 104.348 106.075 104.431C100.249 104.406 86.0394 104.431 80.5645 100.705L80.5311 100.68C72.5654 95.8248 68.3025 84.8619 73.0335 76.3472C74.5631 73.4561 77.3799 71.576 80.5896 70.8657C84.7187 69.9215 89.2658 70.6234 92.9519 72.5536C94.4564 73.314 96.2535 74.3167 97.6243 75.4698C100.341 77.8429 102.664 80.3079 106.225 81.0683C107.864 81.5362 109.569 81.4694 111.207 81.8036C114.275 82.5389 113.506 84.2853 112.277 86.3743L112.285 86.391Z" fill="#0D0D0D"/>
</g>
<path d="M191.592 123.917V52.7838H216.041C223.212 52.7838 229.464 54.2126 234.797 57.062C240.13 59.9197 244.267 63.989 247.235 69.2783C250.194 74.5676 251.673 80.9431 251.673 88.3966C251.673 95.85 250.194 102.326 247.235 107.615C244.276 112.904 240.113 116.949 234.747 119.731C229.381 122.514 223.112 123.909 215.94 123.909H191.6L191.592 123.917ZM205.283 115.453L200.168 110.857H215.004C219.392 110.857 223.271 110.055 226.656 108.451C230.033 106.846 232.699 104.415 234.647 101.139C236.594 97.8638 237.572 93.619 237.572 88.3966C237.572 83.1741 236.611 79.2051 234.697 75.8627C232.783 72.5204 230.133 70.0136 226.756 68.3424C223.379 66.6712 219.493 65.8357 215.104 65.8357H199.432L205.283 61.6577V115.453Z" fill="white"/>
<path d="M284.053 125.171C278.762 125.171 274.107 124.035 270.103 121.778C266.099 119.514 262.981 116.381 260.75 112.378C258.518 108.376 257.406 103.73 257.406 98.4321C257.406 93.1344 258.518 88.4969 260.75 84.4861C262.981 80.4836 266.091 77.3501 270.103 75.0857C274.107 72.8212 278.754 71.6932 284.053 71.6932C289.353 71.6932 293.992 72.8296 298.004 75.0857C302.007 77.3501 305.125 80.4836 307.357 84.4861C309.589 88.4885 310.7 93.1428 310.7 98.4321C310.7 103.721 309.589 108.376 307.357 112.378C305.125 116.381 302.007 119.514 298.004 121.778C294 124.043 289.344 125.171 284.053 125.171ZM284.053 111.902C287.815 111.902 290.882 110.665 293.248 108.192C295.613 105.718 296.8 102.468 296.8 98.4237C296.8 94.3794 295.613 91.1123 293.248 88.6055C290.882 86.0988 287.815 84.8454 284.053 84.8454C280.292 84.8454 277.241 86.0821 274.909 88.5554C272.577 91.0287 271.407 94.2875 271.407 98.3234C271.407 102.359 272.569 105.635 274.909 108.142C277.241 110.648 280.292 111.902 284.053 111.902Z" fill="white"/>
<path d="M339.923 125.221C335.259 125.221 331.146 124.068 327.594 121.778C324.042 119.489 321.292 116.314 319.336 112.269C317.388 108.234 316.41 103.596 316.41 98.3819C316.41 93.1678 317.405 88.4468 319.386 84.4359C321.375 80.4335 324.142 77.3167 327.694 75.0857C331.247 72.8547 335.317 71.7433 339.914 71.7433C344.512 71.7433 348.373 72.7878 351.717 74.8768C355.06 76.9658 357.668 79.9906 359.557 83.968C361.446 87.9454 362.382 92.7417 362.382 98.3819C362.382 104.022 361.446 108.534 359.557 112.537C357.676 116.539 355.043 119.656 351.666 121.887C348.29 124.118 344.369 125.229 339.914 125.229L339.923 125.221ZM342.33 112.587C345.882 112.587 348.774 111.283 351.006 108.668C353.238 106.061 354.35 102.66 354.35 98.4822C354.35 94.3042 353.238 90.8031 351.006 88.1961C348.774 85.5891 345.891 84.2772 342.33 84.2772C338.769 84.2772 335.969 85.5807 333.712 88.1961C331.447 90.8031 330.319 94.204 330.319 98.3819C330.319 102.56 331.447 105.969 333.712 108.618C335.978 111.267 338.844 112.587 342.33 112.587ZM357.166 123.968L353.723 111.852H354.659V86.2659H353.723V52.8423H367.414V123.968H357.175H357.166Z" fill="white"/>
<path d="M399.268 125.171C393.977 125.171 389.321 124.035 385.318 121.778C381.314 119.514 378.196 116.381 375.965 112.378C373.733 108.376 372.621 103.73 372.621 98.4321C372.621 93.1344 373.733 88.4969 375.965 84.4861C378.196 80.4836 381.306 77.3501 385.318 75.0857C389.321 72.8212 393.969 71.6932 399.268 71.6932C404.567 71.6932 409.206 72.8296 413.219 75.0857C417.222 77.3501 420.34 80.4836 422.572 84.4861C424.803 88.4885 425.915 93.1428 425.915 98.4321C425.915 103.721 424.803 108.376 422.572 112.378C420.34 116.381 417.222 119.514 413.219 121.778C409.215 124.043 404.559 125.171 399.268 125.171ZM399.268 111.902C403.029 111.902 406.097 110.665 408.463 108.192C410.828 105.718 412.015 102.468 412.015 98.4237C412.015 94.3794 410.828 91.1123 408.463 88.6055C406.097 86.0988 403.029 84.8454 399.268 84.8454C395.507 84.8454 392.456 86.0821 390.124 88.5554C387.792 91.0287 386.622 94.2875 386.622 98.3234C386.622 102.359 387.783 105.635 390.124 108.142C392.456 110.648 395.507 111.902 399.268 111.902Z" fill="white"/>
<path d="M475.255 90.0761H488.629C492.666 90.0761 495.876 89.0316 498.241 86.9427C500.607 84.8537 501.794 81.8957 501.794 78.0687C501.794 74.0328 500.623 70.9829 498.291 68.9274C495.959 66.8718 492.766 65.844 488.729 65.844H475.147L478.072 62.8192V123.917H464.381V52.7838H489.975C495.199 52.7838 499.729 53.845 503.557 55.9674C507.386 58.0898 510.386 61.031 512.543 64.7912C514.699 68.5514 515.786 72.9716 515.786 78.0604C515.786 83.1491 514.708 87.4774 512.543 91.271C510.386 95.0646 507.369 98.0059 503.507 100.095C499.646 102.184 495.132 103.228 489.975 103.228H475.247V90.0678L475.255 90.0761Z" fill="white"/>
<path d="M540.335 125.38C536.573 125.38 533.263 124.661 530.405 123.241C527.546 121.812 525.356 119.798 523.818 117.183C522.289 114.576 521.52 111.526 521.52 108.042C521.52 104.557 522.339 101.532 523.977 98.9503C525.615 96.3767 527.855 94.3713 530.714 92.9424C533.573 91.5136 536.807 90.8033 540.427 90.8033C545.375 90.8033 549.395 91.9397 552.496 94.1958C555.597 96.4602 557.704 99.6773 558.815 103.855L552.446 103.02V90.6947C552.446 88.7478 551.752 87.0014 550.356 85.4722C548.961 83.9431 546.695 83.1744 543.569 83.1744C541.622 83.1744 539.457 83.4 537.091 83.8512C534.726 84.3024 532.252 85.1547 529.669 86.4081L525.59 76.381C528.583 74.9188 531.767 73.774 535.152 72.9384C538.529 72.1028 541.923 71.685 545.341 71.685C550.005 71.685 553.875 72.5206 556.943 74.1918C560.011 75.863 562.309 78.1608 563.839 81.0854C565.368 84.01 566.137 87.3523 566.137 91.1125V123.909H555.271L552.346 114.2L558.824 112.32C557.637 116.431 555.464 119.631 552.296 121.929C549.128 124.227 545.141 125.372 540.335 125.372V125.38ZM544.096 114.935C546.604 114.935 548.626 114.308 550.156 113.055C551.686 111.802 552.454 110.13 552.454 108.042C552.454 105.953 551.686 104.198 550.156 102.978C548.626 101.758 546.604 101.148 544.096 101.148C541.588 101.148 539.566 101.758 538.036 102.978C536.506 104.198 535.737 105.886 535.737 108.042C535.737 110.197 536.506 111.802 538.036 113.055C539.566 114.308 541.588 114.935 544.096 114.935Z" fill="white"/>
<path d="M592.234 119.213L571.855 72.8381H585.856L604.763 115.971L592.225 119.213H592.234ZM580.532 143.763L611.776 72.8381H625.776L594.532 143.763H580.532Z" fill="white"/>
<path d="M631.485 123.918V72.8464H641.724L644.549 82.6646L640.161 82.4557C641.975 80.3667 643.956 78.52 646.112 76.9241C648.269 75.3197 650.618 74.0496 653.167 73.1138C655.708 72.1779 658.374 71.7016 661.158 71.7016C664.643 71.7016 667.427 72.2949 669.516 73.4731C671.606 74.6596 673.152 76.2556 674.164 78.2777C675.175 80.2998 675.869 82.581 676.253 85.1212C676.638 87.6614 676.83 90.2935 676.83 93.0091V123.926H663.139V92.9089C663.139 89.7754 662.512 87.6865 661.258 86.642C660.004 85.5975 658.508 85.0711 656.761 85.0711C654.254 85.0711 651.813 85.8231 649.447 87.3188C647.082 88.8145 645.093 90.7113 643.496 93.0091L641.724 85.9066H645.168V123.926H631.477L631.485 123.918ZM694.701 123.918V92.9005C694.701 89.7671 694.09 87.6781 692.87 86.6336C691.65 85.5891 690.17 85.0627 688.432 85.0627C685.924 85.0627 683.483 85.8147 681.118 87.3104C678.752 88.8061 676.763 90.7029 675.167 93.0008L671.723 82.4557C673.537 80.3667 675.534 78.52 677.733 76.9241C679.923 75.3197 682.296 74.0496 684.837 73.1138C687.378 72.1779 690.045 71.7016 692.828 71.7016C696.239 71.7016 698.997 72.2949 701.086 73.4731C703.176 74.6596 704.747 76.2556 705.784 78.2777C706.829 80.2998 707.539 82.581 707.924 85.1212C708.308 87.6614 708.5 90.2935 708.5 93.0091V123.926H694.709L694.701 123.918Z" fill="white"/>
<path d="M739.594 124.962C734.512 124.962 730.048 123.867 726.22 121.67C722.392 119.481 719.433 116.397 717.343 112.428C715.254 108.459 714.209 103.797 714.209 98.4321C714.209 93.0676 715.254 88.4969 717.343 84.4861C719.433 80.4836 722.392 77.3501 726.22 75.0857C730.048 72.8212 734.512 71.6932 739.594 71.6932C744.676 71.6932 749.223 72.8463 753.018 75.1358C756.812 77.4337 759.755 80.5839 761.844 84.5863C763.934 88.5888 764.979 93.1678 764.979 98.3234C764.979 99.0922 764.962 99.8358 764.929 100.571C764.895 101.306 764.803 101.916 764.669 102.401H725.384V92.1651H754.322L752.232 97.0784C752.232 92.7584 751.204 89.2406 749.148 86.5333C747.091 83.8176 743.907 82.4556 739.585 82.4556C735.824 82.4556 732.798 83.6254 730.491 85.9567C728.193 88.288 727.048 91.4047 727.048 95.3069V100.839C727.048 104.95 728.21 108.167 730.55 110.498C732.882 112.829 736.067 113.999 740.112 113.999C743.664 113.999 746.448 113.264 748.471 111.81C750.493 110.348 752.232 108.534 753.695 106.379L763.207 111.81C760.908 116.055 757.79 119.313 753.854 121.578C749.917 123.842 745.161 124.97 739.594 124.97V124.962Z" fill="white"/>
<path d="M801.414 71.6932C804.9 71.6932 807.7 72.2865 809.823 73.4647C811.946 74.6512 813.551 76.2472 814.629 78.2693C815.707 80.2914 816.418 82.5726 816.769 85.1128C817.12 87.653 817.287 90.2851 817.287 93.0007V123.918H803.596V92.9005C803.596 89.767 802.985 87.678 801.765 86.6335C800.545 85.5891 798.998 85.0626 797.118 85.0626C795.379 85.0626 793.599 85.3969 791.785 86.057C789.971 86.7171 788.283 87.6613 786.72 88.8813C785.148 90.1012 783.811 91.48 782.699 93.0091L780.927 85.9066H784.371V123.926H770.68V72.8547H780.919L783.744 82.6728L779.356 82.464C781.17 80.375 783.234 78.5283 785.575 76.9323C787.907 75.328 790.397 74.0579 793.047 73.1221C795.697 72.1862 798.48 71.7099 801.406 71.7099L801.414 71.6932Z" fill="white"/>
<path d="M823.014 85.4807V72.8465H855.821V85.4807H823.014ZM847.88 124.854C842.656 124.854 838.527 123.483 835.501 120.726C832.476 117.977 830.954 113.573 830.954 107.515V73.4649L830.745 72.8382L833.571 60.8224H844.646V105.318C844.646 107.549 845.181 109.17 846.267 110.172C847.345 111.183 848.725 111.685 850.396 111.685C851.508 111.685 852.519 111.601 853.422 111.426C854.325 111.25 855.127 111.058 855.829 110.849V123.592C854.718 124.01 853.531 124.327 852.277 124.528C851.023 124.728 849.56 124.845 847.889 124.845L847.88 124.854Z" fill="white"/>
<path d="M881.941 125.271C878.038 125.271 874.327 124.469 870.816 122.865C867.297 121.26 864.179 118.478 861.463 114.509L869.821 107.197C872.053 109.704 874.193 111.501 876.249 112.579C878.305 113.656 880.621 114.2 883.195 114.2C884.934 114.2 886.33 113.782 887.374 112.946C888.419 112.111 888.946 111.066 888.946 109.813C888.946 108.977 888.67 108.234 888.11 107.565C887.55 106.905 886.522 106.262 885.026 105.635C883.529 105.008 881.348 104.348 878.498 103.646C873.207 102.251 869.236 100.354 866.587 97.9558C863.937 95.5493 862.616 92.1568 862.616 87.7699C862.616 84.7785 863.385 82.0462 864.915 79.5728C866.445 77.0995 868.66 75.1358 871.552 73.6736C874.444 72.2113 877.871 71.4843 881.841 71.4843C886.505 71.4843 890.492 72.3868 893.802 74.2C897.112 76.0132 899.77 78.2024 901.793 80.7844L892.916 88.2044C891.595 86.809 889.89 85.5974 887.801 84.5446C885.711 83.4917 883.27 82.9737 880.487 82.9737C878.957 82.9737 877.595 83.3246 876.408 84.0182C875.221 84.7117 874.636 85.7227 874.636 87.043C874.636 88.2964 875.28 89.3409 876.567 90.1764C877.854 91.012 880.345 91.881 884.039 92.7835C890.308 94.2458 894.805 96.2261 897.513 98.7329C900.221 101.24 901.592 104.582 901.592 108.76C901.592 112.102 900.723 115.01 898.984 117.484C897.246 119.957 894.889 121.87 891.93 123.232C888.971 124.586 885.644 125.271 881.95 125.271H881.941Z" fill="white"/>
</svg>
